<svg width="70" height="70" viewBox="0 0 70 70" fill="none" xmlns="http://www.w3.org/2000/svg">
<g clip-path="url(#clip0_1655_30)">
<path d="M68.6788 31.8807L38.115 1.32137C37.6965 0.90269 37.1997 0.570563 36.6528 0.343963C36.1059 0.117364 35.5198 0.000732422 34.9278 0.000732422C34.3359 0.000732422 33.7497 0.117364 33.2028 0.343963C32.656 0.570563 32.1591 0.90269 31.7406 1.32137L25.3969 7.66512L33.4469 15.7151C34.3963 15.391 35.4177 15.3403 36.3945 15.5688C37.3714 15.7973 38.2643 16.2958 38.9714 17.0075C39.6784 17.7191 40.1712 18.6152 40.3934 19.5935C40.6157 20.5718 40.5584 21.5928 40.2281 22.5401L47.985 30.3014C49.1326 29.8973 50.3836 29.8961 51.532 30.2979C52.6805 30.6997 53.6578 31.4806 54.3031 32.5121C54.9485 33.5435 55.2233 34.7639 55.0825 35.9724C54.9416 37.1809 54.3934 38.3054 53.5281 39.1607C52.6522 40.0421 51.4974 40.5919 50.2611 40.7164C49.0248 40.8409 47.7836 40.5322 46.7496 39.8432C45.7155 39.1542 44.9528 38.1275 44.5916 36.9386C44.2305 35.7497 44.2933 34.4722 44.7694 33.3245L37.5375 26.0882V45.1326C38.6368 45.6767 39.5163 46.5812 40.0296 47.6952C40.5428 48.8092 40.6588 50.0655 40.3581 51.2546C40.0574 52.4437 39.3583 53.4939 38.3772 54.23C37.3961 54.9661 36.1924 55.3438 34.9666 55.3C33.7408 55.2562 32.5671 54.7937 31.641 53.9894C30.7149 53.1852 30.0925 52.0878 29.8774 50.8803C29.6623 49.6727 29.8676 48.4279 30.459 47.3534C31.0504 46.2788 31.9922 45.4394 33.1275 44.9751V25.7557C32.4725 25.4874 31.8771 25.092 31.3757 24.5924C30.8742 24.0928 30.4766 23.4989 30.2057 22.845C29.9349 22.191 29.7961 21.4899 29.7975 20.7821C29.7989 20.0742 29.9404 19.3737 30.2138 18.7207L22.2819 10.7845L1.32564 31.7407C0.906963 32.1592 0.574836 32.6561 0.348236 33.203C0.121636 33.7498 0.00500488 34.336 0.00500488 34.9279C0.00500488 35.5199 0.121636 36.106 0.348236 36.6529C0.574836 37.1998 0.906963 37.6966 1.32564 38.1151L31.8894 68.6789C32.3079 69.0975 32.8047 69.4297 33.3516 69.6563C33.8985 69.8829 34.4846 69.9995 35.0766 69.9995C35.6685 69.9995 36.2547 69.8829 36.8016 69.6563C37.3484 69.4297 37.8453 69.0975 38.2638 68.6789L68.6831 38.2595C69.1018 37.841 69.434 37.3442 69.6606 36.7973C69.8871 36.2504 70.0038 35.6643 70.0038 35.0723C70.0038 34.4804 69.8871 33.8942 69.6606 33.3473C69.434 32.8005 69.1018 32.3036 68.6831 31.8851" fill="#FD6F00"/>
</g>
<defs>
<clipPath id="clip0_1655_30">
<rect width="70" height="70" fill="white"/>
</clipPath>
</defs>
</svg>
