<svg width="131" height="130" viewBox="0 0 131 130" fill="none" xmlns="http://www.w3.org/2000/svg">
<path d="M130.25 65C130.25 100.899 101.149 130 65.25 130C29.3515 130 0.25 100.899 0.25 65C0.25 29.1015 29.3515 0 65.25 0C101.149 0 130.25 29.1015 130.25 65ZM13.25 65C13.25 93.7188 36.5312 117 65.25 117C93.9688 117 117.25 93.7188 117.25 65C117.25 36.2812 93.9688 13 65.25 13C36.5312 13 13.25 36.2812 13.25 65Z" fill="#D9D9D9" fill-opacity="0.2"/>
<path d="M130.25 65C130.25 100.899 101.149 130 65.25 130C29.3515 130 0.25 100.899 0.25 65C0.25 29.1015 29.3515 0 65.25 0C101.149 0 130.25 29.1015 130.25 65ZM13.25 65C13.25 93.7188 36.5312 117 65.25 117C93.9688 117 117.25 93.7188 117.25 65C117.25 36.2812 93.9688 13 65.25 13C36.5312 13 13.25 36.2812 13.25 65Z" fill="url(#paint0_linear_587_793)"/>
<path d="M46.4421 77.2252C46.4421 79.2635 47.7351 80.9867 49.2633 80.9867C49.5902 80.9761 49.9115 80.8991 50.2077 80.7604C50.5039 80.6218 50.7689 80.4245 50.9866 80.1804C51.5041 79.6398 52.2152 79.3269 52.9634 79.3106C53.7116 79.2943 54.4356 79.5758 54.9762 80.0934C55.5168 80.6109 55.8296 81.322 55.8459 82.0702C55.8623 82.8184 55.5807 83.5424 55.0632 84.083C54.3209 84.8802 53.4235 85.5172 52.4262 85.9551C51.4288 86.3929 50.3525 86.6223 49.2633 86.6291C44.5966 86.6291 40.7997 82.3973 40.7997 77.2252C40.7997 72.053 44.5966 67.8212 49.2633 67.8212C50.3525 67.8281 51.4288 68.0574 52.4262 68.4953C53.4235 68.9331 54.3209 69.5702 55.0632 70.3673C55.5807 70.9079 55.8623 71.632 55.8459 72.3802C55.8296 73.1284 55.5168 73.8394 54.9762 74.357C54.4356 74.8745 53.7116 75.1561 52.9634 75.1398C52.2152 75.1234 51.5041 74.8106 50.9866 74.27C50.7689 74.0259 50.5039 73.8285 50.2077 73.6899C49.9115 73.5513 49.5902 73.4743 49.2633 73.4636C47.7351 73.4636 46.4421 75.1822 46.4421 77.2252ZM69.3665 75.8828C68.1628 75.0717 66.7052 74.6508 65.4169 74.2794C64.7869 74.1088 64.1662 73.9056 63.5573 73.6705C64.1333 73.3931 65.8401 73.3649 67.3353 73.7481C68.0589 73.9392 68.8288 73.835 69.4756 73.4585C70.1224 73.082 70.5931 72.4639 70.7842 71.7403C70.9753 71.0167 70.8711 70.2469 70.4946 69.6001C70.1181 68.9533 69.5 68.4825 68.7765 68.2914C67.8507 68.063 66.9067 67.9167 65.9553 67.8541C63.6207 67.699 61.7235 68.108 60.2894 69.0696C59.5902 69.539 59.0027 70.1562 58.5684 70.8778C58.1341 71.5993 57.8637 72.4074 57.7762 73.245C57.5176 75.2997 58.3616 77.07 60.153 78.2267C61.2768 78.9531 62.5887 79.3316 63.8558 79.6984C64.5611 79.9076 65.7225 80.2391 66.1786 80.5283C66.1705 80.5861 66.1539 80.6423 66.1292 80.6952C65.8072 81.0596 63.877 81.116 62.276 80.6811C61.9169 80.5735 61.5399 80.5386 61.1672 80.5784C60.7944 80.6182 60.4334 80.7318 60.105 80.9127C59.7767 81.0936 59.4877 81.3381 59.255 81.632C59.0222 81.9258 58.8503 82.2631 58.7494 82.6242C58.6485 82.9852 58.6206 83.3627 58.6672 83.7347C58.7138 84.1066 58.8341 84.4655 59.0211 84.7905C59.208 85.1154 59.4578 85.3998 59.7559 85.6271C60.054 85.8544 60.3944 86.02 60.7572 86.1142C62.0002 86.4487 63.281 86.6217 64.5682 86.6291C66.0869 86.6291 67.7961 86.354 69.2067 85.4183C69.9209 84.9461 70.522 84.3219 70.9671 83.5903C71.4121 82.8588 71.69 82.038 71.781 81.1866C72.0678 78.9955 71.205 77.1147 69.3665 75.8781V75.8828ZM85.3532 75.8828C84.1495 75.0717 82.6919 74.6508 81.4036 74.2794C80.7736 74.1088 80.1529 73.9056 79.544 73.6705C80.12 73.3931 81.8268 73.3649 83.322 73.7481C84.0456 73.9392 84.8155 73.835 85.4623 73.4585C86.109 73.082 86.5798 72.4639 86.7709 71.7403C86.962 71.0167 86.8578 70.2469 86.4813 69.6001C86.1048 68.9533 85.4867 68.4825 84.7631 68.2914C83.8374 68.063 82.8934 67.9167 81.942 67.8541C79.6074 67.699 77.7102 68.108 76.2761 69.0696C75.5769 69.539 74.9894 70.1562 74.5551 70.8778C74.1208 71.5993 73.8504 72.4074 73.7629 73.245C73.5043 75.2997 74.3483 77.07 76.1397 78.2267C77.2635 78.9531 78.5754 79.3316 79.8425 79.6984C80.5478 79.9076 81.7092 80.2391 82.1653 80.5283C82.1572 80.5861 82.1406 80.6423 82.1159 80.6952C81.7939 81.0596 79.8637 81.116 78.2627 80.6811C77.9036 80.5735 77.5266 80.5386 77.1539 80.5784C76.7811 80.6182 76.42 80.7318 76.0917 80.9127C75.7634 81.0936 75.4744 81.3381 75.2417 81.632C75.0089 81.9258 74.837 82.2631 74.7361 82.6242C74.6352 82.9852 74.6072 83.3627 74.6539 83.7347C74.7005 84.1066 74.8208 84.4655 75.0078 84.7905C75.1947 85.1154 75.4445 85.3998 75.7426 85.6271C76.0407 85.8544 76.3811 86.02 76.7439 86.1142C77.9869 86.4487 79.2677 86.6217 80.5549 86.6291C82.0736 86.6291 83.7828 86.354 85.1934 85.4183C85.9076 84.9461 86.5087 84.3219 86.9537 83.5903C87.3988 82.8588 87.6767 82.038 87.7677 81.1866C88.0545 78.9955 87.1917 77.1147 85.3532 75.8781V75.8828ZM43.6209 60.2981V44.3114C43.6209 43.0644 44.1163 41.8684 44.9981 40.9866C45.8799 40.1048 47.0759 39.6094 48.3229 39.6094H70.8923C71.2629 39.6091 71.6299 39.6819 71.9724 39.8234C72.3149 39.965 72.6261 40.1727 72.8883 40.4346L86.0538 53.6001C86.3157 53.8623 86.5234 54.1735 86.665 54.516C86.8066 54.8585 86.8793 55.2255 86.879 55.5961V60.2981C86.879 61.0463 86.5818 61.7639 86.0527 62.293C85.5237 62.822 84.8061 63.1193 84.0579 63.1193C83.3096 63.1193 82.592 62.822 82.063 62.293C81.5339 61.7639 81.2367 61.0463 81.2367 60.2981V59.3577H69.9519C69.2037 59.3577 68.4861 59.0605 67.9571 58.5314C67.428 58.0023 67.1308 57.2847 67.1308 56.5365V45.2518H49.2633V60.2981C49.2633 61.0463 48.9661 61.7639 48.437 62.293C47.9079 62.822 47.1903 63.1193 46.4421 63.1193C45.6939 63.1193 44.9763 62.822 44.4472 62.293C43.9182 61.7639 43.6209 61.0463 43.6209 60.2981ZM72.7731 53.7153H78.1804L72.7731 48.3081V53.7153Z" fill="#959595"/>
<defs>
<linearGradient id="paint0_linear_587_793" x1="3.65116" y1="12.2641" x2="130.856" y2="21.9712" gradientUnits="userSpaceOnUse">
<stop stop-color="#FD6F00"/>
<stop offset="1" stop-color="#E46400"/>
</linearGradient>
</defs>
</svg>
