<svg width="19" height="20" viewBox="0 0 19 20" fill="none" xmlns="http://www.w3.org/2000/svg">
<path d="M13 19C13 19 13 16.73 13 16C13 15.37 13.15 14.04 12.5 13.5C13.89 13.37 14.98 12.92 16 12C17.02 11.08 17.5 9.69 17.5 7.5C17.5 6 17.25 5 16.5 4C16.79 3.22 16.84 2 16.5 1C14.94 1 13.53 2.07 13 2.5C12.61 2.4 11.67 2 10 2C8.33 2 7.39 2.4 7 2.5C6.47 2.07 5.06 1 3.5 1C3.16 2 3.21 3.22 3.5 4C2.75 5 2.5 6 2.5 7.5C2.5 9.69 2.98 11.08 4 12C5.02 12.92 6.11 13.37 7.5 13.5C6.85 14.04 7 15.37 7 16C7 16.73 7 19 7 19" stroke="#BABABA" stroke-width="2" stroke-linecap="round" stroke-linejoin="round"/>
<path d="M7 17C5.594 17 4.156 16.437 3.312 15.812C2.47 15.188 2.22 14.157 1 13.5" stroke="#BABABA" stroke-width="2" stroke-linecap="round" stroke-linejoin="round"/>
</svg>
