<svg width="130" height="130" viewBox="0 0 130 130" fill="none" xmlns="http://www.w3.org/2000/svg">
<path d="M130 65C130 100.899 100.899 130 65 130C29.1015 130 0 100.899 0 65C0 29.1015 29.1015 0 65 0C100.899 0 130 29.1015 130 65ZM13 65C13 93.7188 36.2812 117 65 117C93.7188 117 117 93.7188 117 65C117 36.2812 93.7188 13 65 13C36.2812 13 13 36.2812 13 65Z" fill="#D9D9D9" fill-opacity="0.2"/>
<path d="M130 65C130 100.899 100.899 130 65 130C29.1015 130 0 100.899 0 65C0 29.1015 29.1015 0 65 0C100.899 0 130 29.1015 130 65ZM13 65C13 93.7188 36.2812 117 65 117C93.7188 117 117 93.7188 117 65C117 36.2812 93.7188 13 65 13C36.2812 13 13 36.2812 13 65Z" fill="url(#paint0_linear_587_784)"/>
<g clip-path="url(#clip0_587_784)">
<path d="M46.1921 65C46.9404 65 47.6579 64.7028 48.187 64.1737C48.7161 63.6447 49.0133 62.9271 49.0133 62.1789V45.2518H66.8808V56.5365C66.8808 57.2847 67.178 58.0023 67.7071 58.5314C68.2362 59.0605 68.9538 59.3577 69.702 59.3577H80.9867V62.1789C80.9867 62.9271 81.2839 63.6447 81.813 64.1737C82.3421 64.7028 83.0597 65 83.8079 65C84.5561 65 85.2737 64.7028 85.8028 64.1737C86.3318 63.6447 86.6291 62.9271 86.6291 62.1789V55.5961C86.6294 55.2255 86.5566 54.8585 86.415 54.516C86.2735 54.1735 86.0658 53.8623 85.8039 53.6001L72.6384 40.4346C72.3762 40.1727 72.0649 39.965 71.7225 39.8234C71.38 39.6819 71.013 39.6091 70.6424 39.6094H48.0729C46.8259 39.6094 45.6299 40.1048 44.7481 40.9866C43.8663 41.8684 43.371 43.0644 43.371 44.3114V62.1789C43.371 62.9271 43.6682 63.6447 44.1973 64.1737C44.7263 64.7028 45.4439 65 46.1921 65ZM77.9304 53.7153H72.5232V48.3081L77.9304 53.7153ZM50.8941 72.5232V83.8079C50.8941 84.5561 50.5969 85.2737 50.0678 85.8028C49.5387 86.3319 48.8212 86.6291 48.0729 86.6291C47.3247 86.6291 46.6071 86.3319 46.0781 85.8028C45.549 85.2737 45.2518 84.5561 45.2518 83.8079V80.9867H42.4306V83.8079C42.4306 84.5561 42.1333 85.2737 41.6043 85.8028C41.0752 86.3319 40.3576 86.6291 39.6094 86.6291C38.8612 86.6291 38.1436 86.3319 37.6145 85.8028C37.0854 85.2737 36.7882 84.5561 36.7882 83.8079V72.5232C36.7882 71.775 37.0854 71.0574 37.6145 70.5283C38.1436 69.9992 38.8612 69.702 39.6094 69.702C40.3576 69.702 41.0752 69.9992 41.6043 70.5283C42.1333 71.0574 42.4306 71.775 42.4306 72.5232V75.3444H45.2518V72.5232C45.2518 71.775 45.549 71.0574 46.0781 70.5283C46.6071 69.9992 47.3247 69.702 48.0729 69.702C48.8212 69.702 49.5387 69.9992 50.0678 70.5283C50.5969 71.0574 50.8941 71.775 50.8941 72.5232ZM65 72.5232C65 73.2714 64.7028 73.989 64.1737 74.5181C63.6446 75.0471 62.9271 75.3444 62.1788 75.3444H61.2384V83.8079C61.2384 84.5561 60.9412 85.2737 60.4121 85.8028C59.8831 86.3319 59.1655 86.6291 58.4173 86.6291C57.669 86.6291 56.9515 86.3319 56.4224 85.8028C55.8933 85.2737 55.5961 84.5561 55.5961 83.8079V75.3444H54.6557C53.9075 75.3444 53.1899 75.0471 52.6608 74.5181C52.1317 73.989 51.8345 73.2714 51.8345 72.5232C51.8345 71.775 52.1317 71.0574 52.6608 70.5283C53.1899 69.9992 53.9075 69.702 54.6557 69.702H62.1788C62.9271 69.702 63.6446 69.9992 64.1737 70.5283C64.7028 71.0574 65 71.775 65 72.5232ZM81.9271 72.5232V83.8079C81.9271 84.5561 81.6299 85.2737 81.1008 85.8028C80.5717 86.3319 79.8541 86.6291 79.1059 86.6291C78.3577 86.6291 77.6401 86.3319 77.111 85.8028C76.582 85.2737 76.2847 84.5561 76.2847 83.8079V81.6074L76.2589 81.645C75.9996 82.0223 75.6525 82.3308 75.2474 82.5439C74.8423 82.7571 74.3915 82.8684 73.9338 82.8684C73.476 82.8684 73.0252 82.7571 72.6201 82.5439C72.215 82.3308 71.8679 82.0223 71.6086 81.645L71.5828 81.6074V83.8079C71.5828 84.5561 71.2855 85.2737 70.7565 85.8028C70.2274 86.3319 69.5098 86.6291 68.7616 86.6291C68.0134 86.6291 67.2958 86.3319 66.7667 85.8028C66.2376 85.2737 65.9404 84.5561 65.9404 83.8079V72.5232C65.9402 71.921 66.1327 71.3346 66.4897 70.8496C66.8468 70.3647 67.3496 70.0068 67.9247 69.8281C68.4997 69.6495 69.1169 69.6595 69.6858 69.8568C70.2548 70.0541 70.7457 70.4282 71.0867 70.9245L73.9338 75.067L76.7808 70.9245C77.1218 70.4282 77.6127 70.0541 78.1817 69.8568C78.7506 69.6595 79.3678 69.6495 79.9429 69.8281C80.5179 70.0068 81.0207 70.3647 81.3778 70.8496C81.7348 71.3346 81.9273 71.921 81.9271 72.5232ZM95.0926 83.8079C95.0926 84.5561 94.7954 85.2737 94.2663 85.8028C93.7372 86.3319 93.0197 86.6291 92.2714 86.6291H86.6291C85.8808 86.6291 85.1633 86.3319 84.6342 85.8028C84.1051 85.2737 83.8079 84.5561 83.8079 83.8079V72.5232C83.8079 71.775 84.1051 71.0574 84.6342 70.5283C85.1633 69.9992 85.8808 69.702 86.6291 69.702C87.3773 69.702 88.0949 69.9992 88.6239 70.5283C89.153 71.0574 89.4503 71.775 89.4503 72.5232V80.9867H92.2714C93.0197 80.9867 93.7372 81.284 94.2663 81.813C94.7954 82.3421 95.0926 83.0597 95.0926 83.8079Z" fill="#959595"/>
</g>
<defs>
<linearGradient id="paint0_linear_587_784" x1="3.40116" y1="12.2641" x2="130.606" y2="21.9712" gradientUnits="userSpaceOnUse">
<stop stop-color="#FD6F00"/>
<stop offset="1" stop-color="#E46400"/>
</linearGradient>
<clipPath id="clip0_587_784">
<rect width="60.1852" height="60.1852" fill="white" transform="translate(34.9074 34.9075)"/>
</clipPath>
</defs>
</svg>
