<svg width="131" height="130" viewBox="0 0 131 130" fill="none" xmlns="http://www.w3.org/2000/svg">
<path d="M130.5 65C130.5 100.899 101.399 130 65.5 130C29.6015 130 0.5 100.899 0.5 65C0.5 29.1015 29.6015 0 65.5 0C101.399 0 130.5 29.1015 130.5 65ZM13.5 65C13.5 93.7188 36.7812 117 65.5 117C94.2188 117 117.5 93.7188 117.5 65C117.5 36.2812 94.2188 13 65.5 13C36.7812 13 13.5 36.2812 13.5 65Z" fill="#D9D9D9" fill-opacity="0.2"/>
<path d="M124 65C127.59 65 130.534 67.9175 130.175 71.4894C129.115 82.0523 125.48 92.2304 119.546 101.112C112.403 111.801 102.252 120.132 90.3744 125.052C78.4972 129.972 65.4279 131.259 52.8191 128.751C40.2104 126.243 28.6285 120.052 19.5381 110.962C10.4476 101.872 4.257 90.2896 1.74896 77.6809C-0.759083 65.0721 0.528134 52.0028 5.44783 40.1256C10.3675 28.2484 18.6987 18.0968 29.3879 10.9545C38.2696 5.01996 48.4477 1.38453 59.0106 0.324705C62.5825 -0.0336793 65.5 2.91015 65.5 6.5C65.5 10.0899 62.5786 12.9581 59.0168 13.4057C51.0294 14.4094 43.3529 17.2583 36.6103 21.7636C28.059 27.4774 21.394 35.5987 17.4583 45.1005C13.5225 54.6022 12.4927 65.0577 14.4992 75.1447C16.5056 85.2317 21.4581 94.4972 28.7304 101.77C36.0028 109.042 45.2683 113.994 55.3553 116.001C65.4423 118.007 75.8978 116.977 85.3995 113.042C94.9013 109.106 103.023 102.441 108.736 93.8896C113.242 87.1471 116.091 79.4706 117.094 71.4832C117.542 67.9214 120.41 65 124 65Z" fill="url(#paint0_linear_587_804)"/>
<path d="M67.3809 63.1193C67.3809 61.6228 67.9753 60.1877 69.0335 59.1295C70.0916 58.0714 71.5268 57.4769 73.0232 57.4769H78.6656C79.1644 57.4769 79.6428 57.6751 79.9955 58.0278C80.3482 58.3805 80.5464 58.8589 80.5464 59.3577C80.5464 59.8565 80.3482 60.3349 79.9955 60.6876C79.6428 61.0403 79.1644 61.2385 78.6656 61.2385H73.0232C72.5244 61.2385 72.046 61.4366 71.6933 61.7893C71.3406 62.1421 71.1424 62.6204 71.1424 63.1193V65.0001C71.1424 65.4989 71.3406 65.9773 71.6933 66.33C72.046 66.6827 72.5244 66.8808 73.0232 66.8808H74.904C76.4005 66.8808 77.8356 67.4753 78.8938 68.5334C79.9519 69.5916 80.5464 71.0268 80.5464 72.5232V74.404C80.5464 75.9004 79.9519 77.3356 78.8938 78.3937C77.8356 79.4519 76.4005 80.0463 74.904 80.0463H69.2617C68.7628 80.0463 68.2845 79.8482 67.9317 79.4955C67.579 79.1428 67.3809 78.6644 67.3809 78.1656C67.3809 77.6667 67.579 77.1884 67.9317 76.8356C68.2845 76.4829 68.7628 76.2848 69.2617 76.2848H74.904C75.4028 76.2848 75.8812 76.0866 76.2339 75.7339C76.5867 75.3812 76.7848 74.9028 76.7848 74.404V72.5232C76.7848 72.0244 76.5867 71.546 76.2339 71.1933C75.8812 70.8406 75.4028 70.6424 74.904 70.6424H73.0232C71.5268 70.6424 70.0916 70.048 69.0335 68.9898C67.9753 67.9317 67.3809 66.4965 67.3809 65.0001V63.1193ZM65.5001 59.3577C65.5001 58.8589 65.3019 58.3805 64.9492 58.0278C64.5965 57.6751 64.1181 57.4769 63.6193 57.4769C63.1205 57.4769 62.6421 57.6751 62.2894 58.0278C61.9367 58.3805 61.7385 58.8589 61.7385 59.3577V74.404C61.7385 74.9028 61.5404 75.3812 61.1876 75.7339C60.8349 76.0866 60.3565 76.2848 59.8577 76.2848H56.0961C55.5973 76.2848 55.1189 76.4829 54.7662 76.8356C54.4135 77.1884 54.2154 77.6667 54.2154 78.1656C54.2154 78.6644 54.4135 79.1428 54.7662 79.4955C55.1189 79.8482 55.5973 80.0463 56.0961 80.0463H59.8577C61.3542 80.0463 62.7893 79.4519 63.8475 78.3937C64.9056 77.3356 65.5001 75.9004 65.5001 74.404V59.3577ZM42.9306 51.8345C42.9306 49.3405 43.9214 46.9485 45.685 45.185C47.4486 43.4214 49.8405 42.4306 52.3346 42.4306H78.6656C81.1597 42.4306 83.5516 43.4214 85.3152 45.185C87.0788 46.9485 88.0695 49.3405 88.0695 51.8345V78.1656C88.0695 80.6596 87.0788 83.0516 85.3152 84.8151C83.5516 86.5787 81.1597 87.5695 78.6656 87.5695H52.3346C49.8405 87.5695 47.4486 86.5787 45.685 84.8151C43.9214 83.0516 42.9306 80.6596 42.9306 78.1656V51.8345ZM52.3346 46.1922C50.8381 46.1922 49.403 46.7866 48.3448 47.8448C47.2867 48.9029 46.6922 50.3381 46.6922 51.8345V78.1656C46.6922 79.662 47.2867 81.0972 48.3448 82.1553C49.403 83.2135 50.8381 83.8079 52.3346 83.8079H78.6656C80.162 83.8079 81.5972 83.2135 82.6553 82.1553C83.7135 81.0972 84.308 79.662 84.308 78.1656V51.8345C84.308 50.3381 83.7135 48.9029 82.6553 47.8448C81.5972 46.7866 80.162 46.1922 78.6656 46.1922H52.3346Z" fill="#959595"/>
<defs>
<linearGradient id="paint0_linear_587_804" x1="3.90116" y1="12.2641" x2="131.106" y2="21.9712" gradientUnits="userSpaceOnUse">
<stop stop-color="#FD6F00"/>
<stop offset="1" stop-color="#E46400"/>
</linearGradient>
</defs>
</svg>
