<svg width="130" height="130" viewBox="0 0 130 130" fill="none" xmlns="http://www.w3.org/2000/svg">
<path d="M130 64.6605C130 100.204 101.187 129.017 65.6435 129.017C30.1004 129.017 1.28709 100.204 1.28709 64.6605C1.28709 29.1174 30.1004 0.304054 65.6435 0.304054C101.187 0.304054 130 29.1174 130 64.6605ZM14.1584 64.6605C14.1584 93.095 37.2091 116.146 65.6435 116.146C94.078 116.146 117.129 93.095 117.129 64.6605C117.129 36.226 94.078 13.1753 65.6435 13.1753C37.2091 13.1753 14.1584 36.226 14.1584 64.6605Z" fill="#D9D9D9" fill-opacity="0.2"/>
<g clip-path="url(#clip0_587_826)">
<path d="M65.1525 94.7669C64.3531 94.7669 63.5636 94.5584 62.861 94.1537L55.5742 89.8387C54.4843 89.2304 55.0156 89.0145 55.3756 88.8903C56.8255 88.3838 57.1209 88.2696 58.6701 87.3883C58.834 87.2964 59.0475 87.3287 59.2139 87.4255L64.8124 90.7499C64.9173 90.8035 65.0335 90.8314 65.1513 90.8314C65.2691 90.8314 65.3853 90.8035 65.4902 90.7499L87.3233 78.1451C87.4242 78.0834 87.5078 77.997 87.566 77.894C87.6242 77.7911 87.6552 77.6749 87.656 77.5567V52.3595C87.6568 52.2386 87.6261 52.1196 87.5669 52.0143C87.5077 51.9089 87.422 51.8208 87.3183 51.7586L65.4952 39.1662C65.393 39.1069 65.2769 39.0757 65.1588 39.0757C65.0406 39.0757 64.9245 39.1069 64.8223 39.1662L42.9992 51.7586C42.8948 51.8194 42.8082 51.9063 42.7477 52.0108C42.6871 52.1153 42.6549 52.2338 42.6541 52.3545V77.5492C42.6541 77.79 42.7856 78.0209 42.9942 78.1351L48.9726 81.5886C52.22 83.2123 54.2037 81.3006 54.2037 79.3765V54.5095C54.2024 54.4261 54.2178 54.3433 54.2492 54.266C54.2806 54.1887 54.3272 54.1186 54.3863 54.0597C54.4454 54.0008 54.5157 53.9545 54.5931 53.9234C54.6705 53.8923 54.7534 53.8772 54.8368 53.8789H57.6026C57.9477 53.8789 58.2307 54.152 58.2307 54.5095V79.3864C58.2307 83.7163 55.8721 86.2015 51.7657 86.2015C50.502 86.2015 49.5064 86.2015 46.7307 84.836L41.003 81.534C40.3069 81.1274 39.7292 80.5457 39.3276 79.8466C38.926 79.1475 38.7145 78.3554 38.714 77.5492V52.3545C38.714 50.7159 39.5879 49.184 41.003 48.3772L62.861 35.7674C63.565 35.3832 64.3542 35.1819 65.1563 35.1819C65.9583 35.1819 66.7475 35.3832 67.4516 35.7674L89.2797 48.3796C90.6899 49.1965 91.5688 50.7209 91.5688 52.3595V77.5567C91.567 78.3616 91.3548 79.1521 90.9533 79.8498C90.5517 80.5475 89.9748 81.1281 89.2797 81.534L67.4516 94.1438C66.7514 94.5461 65.9576 94.7568 65.1501 94.7545L65.1525 94.7669ZM71.8956 77.4052C62.3421 77.4052 60.341 73.0207 60.341 69.3413C60.341 68.9937 60.6216 68.7132 60.9716 68.7132H63.792C64.1048 68.7132 64.3655 68.9391 64.4152 69.247C64.8422 72.122 66.1109 73.5719 71.8882 73.5719C76.4887 73.5719 78.4451 72.5316 78.4451 70.0911C78.4451 68.6859 77.8865 67.6431 70.7387 66.943C64.7603 66.3521 61.066 65.0363 61.066 60.2545C61.066 55.8477 64.7826 53.2259 71.0068 53.2259C77.9957 53.2259 81.4616 55.6516 81.8985 60.8653C81.9061 60.953 81.8954 61.0414 81.867 61.1247C81.8386 61.2081 81.7932 61.2846 81.7337 61.3495C81.6742 61.4144 81.6018 61.4662 81.5212 61.5017C81.4406 61.5371 81.3535 61.5555 81.2655 61.5555H78.4277C78.2845 61.5562 78.1455 61.5074 78.0342 61.4174C77.9229 61.3273 77.8461 61.2016 77.8169 61.0614C77.1342 58.0399 75.4832 57.0717 70.9969 57.0717C65.9743 57.0717 65.3884 58.822 65.3884 60.1329C65.3884 61.7218 66.0761 62.1886 72.854 63.0848C79.5648 63.9761 82.7526 65.2324 82.7526 69.9496C82.7526 74.704 78.7827 77.4325 71.8658 77.4325L71.8956 77.4052Z" fill="#959595"/>
</g>
<path d="M113.867 94.4143C116.906 96.2589 117.898 100.24 115.76 103.079C110.267 110.371 103.269 116.431 95.2152 120.832C85.273 126.264 74.0729 128.976 62.7469 128.693C51.4209 128.409 40.3704 125.141 30.7124 119.218C21.0543 113.295 13.1309 104.928 7.74304 94.9616C2.3552 84.9951 -0.306144 73.783 0.0279954 62.4584C0.362135 51.1338 3.67992 40.098 9.646 30.4666C15.6121 20.8352 24.015 12.9494 34.0055 7.60634C42.0988 3.27791 51.0016 0.742418 60.1108 0.140175C63.6573 -0.094303 66.4451 2.91683 66.3243 6.46908C66.2036 10.0213 63.2163 12.7613 59.6767 13.0844C52.8376 13.7086 46.1698 15.6971 40.0757 18.9564C32.0833 23.2308 25.361 29.5394 20.5881 37.2446C15.8152 44.9497 13.161 53.7783 12.8937 62.838C12.6264 71.8977 14.7554 80.8674 19.0657 88.8405C23.376 96.8137 29.7147 103.508 37.4412 108.246C45.1676 112.984 54.008 115.599 63.0688 115.825C72.1296 116.052 81.0897 113.883 89.0434 109.537C95.108 106.223 100.424 101.733 104.692 96.3531C106.901 93.5686 110.829 92.5698 113.867 94.4143Z" fill="url(#paint0_linear_587_826)"/>
<defs>
<linearGradient id="paint0_linear_587_826" x1="3.36749" y1="12.1427" x2="129.313" y2="21.7537" gradientUnits="userSpaceOnUse">
<stop stop-color="#FD6F00"/>
<stop offset="1" stop-color="#E46400"/>
</linearGradient>
<clipPath id="clip0_587_826">
<rect width="59.5855" height="59.5855" fill="white" transform="translate(35.6106 35.1815)"/>
</clipPath>
</defs>
</svg>
