<svg width="70" height="70" viewBox="0 0 70 70" fill="none" xmlns="http://www.w3.org/2000/svg">
<path d="M54.8769 10.9375H16.9981C13.6509 10.9375 10.9375 13.5492 10.9375 16.7708V53.2292C10.9375 56.4508 13.6509 59.0625 16.9981 59.0625H54.8769C58.2241 59.0625 60.9375 56.4508 60.9375 53.2292V16.7708C60.9375 13.5492 58.2241 10.9375 54.8769 10.9375Z" stroke="#FD6F00" stroke-width="5" stroke-linecap="round" stroke-linejoin="round"/>
<path d="M34.4223 32.8125V47.3958C34.4223 48.1694 34.1031 48.9112 33.5348 49.4582C32.9665 50.0052 32.1957 50.3125 31.392 50.3125H26.8466M51.8466 32.8125H45.786C44.9823 32.8125 44.2115 33.1198 43.6432 33.6668C43.0749 34.2138 42.7556 34.9556 42.7556 35.7292V38.6458C42.7556 39.4194 43.0749 40.1612 43.6432 40.7082C44.2115 41.2552 44.9823 41.5625 45.786 41.5625H48.8163C49.6199 41.5625 50.3907 41.8698 50.959 42.4168C51.5273 42.9638 51.8466 43.7056 51.8466 44.4792V47.3958C51.8466 48.1694 51.5273 48.9112 50.959 49.4582C50.3907 50.0052 49.6199 50.3125 48.8163 50.3125H42.7556" stroke="#FD6F00" stroke-width="5" stroke-linecap="round" stroke-linejoin="round"/>
</svg>
