<svg width="131" height="130" viewBox="0 0 131 130" fill="none" xmlns="http://www.w3.org/2000/svg">
<path d="M130.75 65C130.75 100.899 101.649 130 65.75 130C29.8515 130 0.75 100.899 0.75 65C0.75 29.1015 29.8515 0 65.75 0C101.649 0 130.75 29.1015 130.75 65ZM13.75 65C13.75 93.7188 37.0312 117 65.75 117C94.4688 117 117.75 93.7188 117.75 65C117.75 36.2812 94.4688 13 65.75 13C37.0312 13 13.75 36.2812 13.75 65Z" fill="#D9D9D9" fill-opacity="0.2"/>
<path d="M91.3937 117.58C92.9673 120.807 91.6357 124.731 88.2681 125.975C81.1197 128.615 73.5462 129.983 65.8921 130C56.0661 130.021 46.3631 127.815 37.5127 123.546C28.6624 119.278 20.8949 113.058 14.7945 105.355C8.694 97.6522 4.41932 88.6664 2.29184 79.0735C0.164367 69.4805 0.239461 59.5301 2.51148 49.9704C4.7835 40.4107 9.19331 31.4904 15.4093 23.8805C21.6253 16.2705 29.4858 10.1688 38.3996 6.03429C45.3431 2.81365 52.785 0.851904 60.3792 0.222255C63.9568 -0.0743645 66.8228 2.91942 66.7608 6.50873C66.6988 10.098 63.7283 12.9154 60.1593 13.3014C54.5333 13.9098 49.0295 15.4341 43.8697 17.8274C36.7386 21.1351 30.4503 26.0164 25.4775 32.1044C20.5046 38.1923 16.9768 45.3285 15.1592 52.9763C13.3416 60.6241 13.2815 68.5844 14.9835 76.2588C16.6855 83.9331 20.1052 91.1217 24.9856 97.2841C29.8659 103.446 36.0799 108.422 43.1602 111.837C50.2405 115.252 58.0029 117.017 65.8637 117C71.5515 116.987 77.1837 116.042 82.5395 114.215C85.937 113.056 89.8201 114.353 91.3937 117.58Z" fill="url(#paint0_linear_587_815)"/>
<g clip-path="url(#clip0_587_815)">
<path fill-rule="evenodd" clip-rule="evenodd" d="M56.9831 42.2781C55.3781 41.8127 54.1945 41.9371 53.3318 42.4065C52.4652 42.872 51.7109 43.7988 51.2213 45.3957C50.7318 47.0047 50.5673 49.1513 50.8041 51.7433C50.8442 52.1632 50.8937 52.5925 50.9525 53.0312C53.1667 52.4791 55.4124 52.0623 57.6772 51.7834C59.2213 49.5954 60.9316 47.5297 62.793 45.6044L62.5281 45.3917C60.4899 43.7787 58.596 42.7436 56.9831 42.2781ZM65.7501 42.8399C65.5093 42.6366 65.2659 42.4386 65.0198 42.246C62.7247 40.4325 60.3735 39.0803 58.1025 38.4223C55.8155 37.7602 53.4763 37.7602 51.418 38.8797C49.3596 39.9991 48.0757 41.9571 47.3855 44.2321C46.6954 46.4951 46.543 49.1994 46.8078 52.1164C46.8693 52.7985 46.9562 53.498 47.0686 54.2149C46.3838 54.4556 45.7284 54.7124 45.1025 54.9852C42.4102 56.1368 40.1031 57.5612 38.442 59.2463C36.7729 60.9355 35.6575 62.9939 35.6575 65.3371C35.6575 67.6803 36.7729 69.7346 38.442 71.4318C40.1031 73.117 42.4102 74.5374 45.1025 75.693C45.7311 75.9604 46.3865 76.2172 47.0686 76.4633C46.9612 77.1601 46.8742 77.8599 46.8078 78.5618C46.543 81.4747 46.6954 84.1791 47.3855 86.446C48.0757 88.721 49.3596 90.6831 51.418 91.7945C53.4763 92.9099 55.8195 92.9139 58.1025 92.2519C60.3735 91.5899 62.7247 90.2457 65.0198 88.4281L65.7501 87.8303C65.9908 88.0336 66.2342 88.2329 66.4803 88.4281C68.7754 90.2417 71.1266 91.5899 73.3976 92.2519C75.6806 92.9139 78.0238 92.9099 80.0822 91.7945C82.1405 90.6831 83.4244 88.721 84.1146 86.446C84.8047 84.1831 84.9572 81.4747 84.6923 78.5618C84.6259 77.8599 84.5389 77.1601 84.4315 76.4633C85.1136 76.2226 85.769 75.9658 86.3976 75.693C89.0899 74.5374 91.397 73.113 93.0581 71.4318C94.7272 69.7386 95.8426 67.6763 95.8426 65.3331C95.8426 62.9979 94.7272 60.9355 93.0581 59.2423C91.397 57.5571 89.0899 56.1328 86.3976 54.9812C85.7499 54.7053 85.0943 54.4484 84.4315 54.2108C84.5385 53.494 84.6255 52.7945 84.6923 52.1124C84.9572 49.1954 84.8047 46.4951 84.1146 44.2281C83.4244 41.9531 82.1405 39.9911 80.0822 38.8757C78.0238 37.7602 75.6806 37.7602 73.3976 38.4223C71.1266 39.0803 68.7754 40.4284 66.4803 42.246L65.7501 42.8399ZM65.7501 48.3167C64.8459 49.2422 63.9472 50.252 63.0538 51.346C64.8506 51.275 66.6495 51.275 68.4463 51.346C67.5945 50.2955 66.6948 49.2846 65.7501 48.3167ZM73.8229 51.7834C72.1778 49.4803 70.4525 47.4019 68.7072 45.6044L68.968 45.3917C71.0143 43.7787 72.9001 42.7436 74.517 42.2781C76.118 41.8127 77.3056 41.9371 78.1683 42.4065C79.0349 42.872 79.7893 43.7988 80.2747 45.3957C80.7643 47.0047 80.9328 49.1513 80.696 51.7433C80.6559 52.1659 80.6064 52.5939 80.5476 53.0272C78.3334 52.4764 76.0876 52.061 73.8229 51.7834ZM71.5639 55.571C67.6964 55.2102 63.8037 55.2102 59.9362 55.571C57.8695 58.6613 56.0823 61.9296 54.5957 65.3371C56.0831 68.7421 57.8689 72.0089 59.9322 75.0991C63.8023 75.4604 67.6978 75.4604 71.568 75.0991C73.633 72.01 75.4189 68.743 76.9044 65.3371C75.4172 61.9307 73.6274 58.6626 71.5639 55.571ZM78.8865 60.1371C78.2229 58.8362 77.5177 57.5569 76.772 56.3013C77.8152 56.5019 78.8209 56.7266 79.7893 56.9754C79.5378 58.0052 79.2369 59.0591 78.8865 60.1371ZM78.8865 70.5331C78.223 71.8353 77.5178 73.1159 76.772 74.3729C77.8152 74.1723 78.8209 73.9462 79.7893 73.6948C79.5244 72.6309 79.2233 71.5764 78.8865 70.5331ZM83.621 72.4871C82.9954 70.0537 82.2072 67.665 81.2618 65.3371C82.2488 62.8896 83.0393 60.4862 83.621 58.1871C84.033 58.3422 84.4342 58.5027 84.8247 58.6686C87.2161 59.6957 89.0257 60.8633 90.2053 62.059C91.3769 63.2467 91.8343 64.3541 91.8343 65.3371C91.8343 66.3201 91.3769 67.4235 90.2053 68.6112C89.0257 69.8109 87.2161 70.9784 84.8247 72.0056C84.4268 72.1742 84.0255 72.3347 83.621 72.4871ZM80.5516 77.643C78.3375 78.1951 76.0917 78.6118 73.8269 78.8908C72.1818 81.1939 70.4565 83.2683 68.7112 85.0698L68.976 85.2784C71.0143 86.8954 72.9081 87.9266 74.521 88.396C76.122 88.8615 77.3096 88.7371 78.1723 88.2676C79.0349 87.7982 79.7933 86.8714 80.2788 85.2744C80.7723 83.6695 80.9368 81.5189 80.7001 78.9269C80.6604 78.4978 80.6109 78.0697 80.5516 77.643ZM65.7501 82.3575C66.6542 81.4319 67.5529 80.4222 68.4463 79.3281C66.6495 79.3992 64.8506 79.3992 63.0538 79.3281C63.9472 80.4195 64.8459 81.4293 65.7501 82.3575ZM54.7322 74.3729C53.9864 73.1159 53.2812 71.8353 52.6176 70.5331C52.2699 71.6137 51.969 72.6676 51.7149 73.6948C52.6805 73.9462 53.6863 74.1723 54.7322 74.3729ZM50.9525 77.643C53.1667 78.1951 55.4124 78.6118 57.6772 78.8908C59.3223 81.1939 61.0436 83.2683 62.793 85.0698L62.5281 85.2784C60.4899 86.8954 58.596 87.9266 56.9831 88.396C55.3781 88.8615 54.1945 88.7371 53.3278 88.2676C52.4612 87.7982 51.7109 86.8714 51.2213 85.2744C50.7318 83.6695 50.5673 81.5189 50.8041 78.9269C50.8449 78.498 50.8944 78.0699 50.9525 77.643ZM47.8831 72.4871C48.4649 70.184 49.2513 67.7846 50.2423 65.3371C49.2969 63.0092 48.5087 60.6205 47.8831 58.1871C47.4685 58.3422 47.0672 58.5027 46.6794 58.6686C44.288 59.6957 42.4784 60.8633 41.2988 62.059C40.1272 63.2467 39.6698 64.3541 39.6698 65.3371C39.6698 66.3201 40.1272 67.4235 41.2988 68.6112C42.4784 69.8109 44.288 70.9784 46.6794 72.0056C47.0699 72.1688 47.4711 72.3293 47.8831 72.4871ZM51.7149 56.9794C51.9663 58.0065 52.2672 59.0591 52.6176 60.1371C53.2812 58.8362 53.9864 57.5569 54.7322 56.3013C53.6889 56.5019 52.6832 56.7279 51.7149 56.9794ZM59.7315 65.3371C59.7315 63.7409 60.3656 62.21 61.4943 61.0813C62.623 59.9527 64.1538 59.3186 65.7501 59.3186C67.3463 59.3186 68.8771 59.9527 70.0058 61.0813C71.1345 62.21 71.7686 63.7409 71.7686 65.3371C71.7686 66.9333 71.1345 68.4641 70.0058 69.5928C68.8771 70.7215 67.3463 71.3556 65.7501 71.3556C64.1538 71.3556 62.623 70.7215 61.4943 69.5928C60.3656 68.4641 59.7315 66.9333 59.7315 65.3371ZM65.7501 63.3309C65.218 63.3309 64.7077 63.5423 64.3315 63.9185C63.9552 64.2947 63.7439 64.805 63.7439 65.3371C63.7439 65.8692 63.9552 66.3794 64.3315 66.7557C64.7077 67.1319 65.218 67.3433 65.7501 67.3433C66.2821 67.3433 66.7924 67.1319 67.1686 66.7557C67.5449 66.3794 67.7562 65.8692 67.7562 65.3371C67.7562 64.805 67.5449 64.2947 67.1686 63.9185C66.7924 63.5423 66.2821 63.3309 65.7501 63.3309Z" fill="#959595"/>
</g>
<defs>
<linearGradient id="paint0_linear_587_815" x1="4.15116" y1="12.2641" x2="131.356" y2="21.9712" gradientUnits="userSpaceOnUse">
<stop stop-color="#FD6F00"/>
<stop offset="1" stop-color="#E46400"/>
</linearGradient>
<clipPath id="clip0_587_815">
<rect width="60.1852" height="60.1852" fill="white" transform="translate(35.6575 34.9075)"/>
</clipPath>
</defs>
</svg>
