<svg width="70" height="70" viewBox="0 0 70 70" fill="none" xmlns="http://www.w3.org/2000/svg">
<path d="M53.6667 28.0001V27.2208C53.6667 23.7861 50.8807 21.0001 47.446 21.0001H42C40.1435 21.0001 38.363 21.7376 37.0503 23.0503C35.7375 24.3631 35 26.1436 35 28.0001C35 29.8566 35.7375 31.6371 37.0503 32.9498C38.363 34.2626 40.1435 35.0001 42 35.0001H46.6667C48.5232 35.0001 50.3037 35.7376 51.6164 37.0503C52.9292 38.3631 53.6667 40.1436 53.6667 42.0001C53.6667 43.8566 52.9292 45.6371 51.6164 46.9498C50.3037 48.2626 48.5232 49.0001 46.6667 49.0001H42C40.1435 49.0001 38.363 48.2626 37.0503 46.9498C35.7375 45.6371 35 43.8566 35 42.0001M25.6667 18.6667V43.2321C25.6666 44.9657 25.1837 46.6651 24.2721 48.1397C23.3604 49.6143 22.0561 50.8058 20.5053 51.5808L16.3333 53.6668M7 49.0001V21.0001L35 4.66675L63 21.0001V49.0001L35 65.3334L7 49.0001Z" stroke="#FD6F00" stroke-width="3"/>
</svg>
