<svg width="70" height="70" viewBox="0 0 70 70" fill="none" xmlns="http://www.w3.org/2000/svg">
<path fill-rule="evenodd" clip-rule="evenodd" d="M24.8033 8.57272C22.9367 8.03139 21.56 8.17605 20.5567 8.72205C19.5487 9.26339 18.6713 10.3414 18.102 12.1987C17.5327 14.0701 17.3413 16.5667 17.6167 19.5814C17.6633 20.0698 17.7209 20.5692 17.7893 21.0794C20.3645 20.4372 22.9765 19.9525 25.6107 19.6281C27.4066 17.0833 29.3958 14.6807 31.5607 12.4414L31.2527 12.1941C28.882 10.3181 26.6793 9.11405 24.8033 8.57272ZM35 9.22605C34.72 8.98961 34.4369 8.75939 34.1507 8.53539C31.4813 6.42605 28.7467 4.85339 26.1053 4.08805C23.4453 3.31805 20.7247 3.31805 18.3307 4.62005C15.9367 5.92205 14.4433 8.19939 13.6407 10.8454C12.838 13.4774 12.6607 16.6227 12.9687 20.0154C13.0402 20.8087 13.1413 21.6223 13.272 22.4561C12.4756 22.7361 11.7133 23.0347 10.9853 23.3521C7.854 24.6914 5.17067 26.3481 3.23867 28.3081C1.29733 30.2727 0 32.6667 0 35.3921C0 38.1174 1.29733 40.5067 3.23867 42.4807C5.17067 44.4407 7.854 46.0927 10.9853 47.4367C11.7164 47.7478 12.4787 48.0465 13.272 48.3327C13.1471 49.1431 13.0459 49.957 12.9687 50.7734C12.6607 54.1614 12.838 57.3067 13.6407 59.9434C14.4433 62.5894 15.9367 64.8714 18.3307 66.1641C20.7247 67.4614 23.45 67.4661 26.1053 66.6961C28.7467 65.9261 31.4813 64.3627 34.1507 62.2487L35 61.5534C35.28 61.7898 35.5631 62.0216 35.8493 62.2487C38.5187 64.3581 41.2533 65.9261 43.8947 66.6961C46.55 67.4661 49.2753 67.4614 51.6693 66.1641C54.0633 64.8714 55.5567 62.5894 56.3593 59.9434C57.162 57.3114 57.3393 54.1614 57.0313 50.7734C56.9541 49.957 56.8529 49.1431 56.728 48.3327C57.5213 48.0527 58.2836 47.7541 59.0147 47.4367C62.146 46.0927 64.8293 44.4361 66.7613 42.4807C68.7027 40.5114 70 38.1127 70 35.3874C70 32.6714 68.7027 30.2727 66.7613 28.3034C64.8293 26.3434 62.146 24.6867 59.0147 23.3474C58.2613 23.0265 57.4988 22.7277 56.728 22.4514C56.8524 21.6176 56.9536 20.8041 57.0313 20.0107C57.3393 16.6181 57.162 13.4774 56.3593 10.8407C55.5567 8.19472 54.0633 5.91272 51.6693 4.61539C49.2753 3.31805 46.55 3.31805 43.8947 4.08805C41.2533 4.85339 38.5187 6.42139 35.8493 8.53539L35 9.22605ZM35 15.5961C33.9484 16.6725 32.9031 17.8469 31.864 19.1194C33.9538 19.0367 36.0461 19.0367 38.136 19.1194C37.1452 17.8975 36.0988 16.7218 35 15.5961ZM44.3893 19.6281C42.476 16.9494 40.4693 14.5321 38.4393 12.4414L38.7427 12.1941C41.1227 10.3181 43.316 9.11405 45.1967 8.57272C47.0587 8.03139 48.44 8.17605 49.4433 8.72205C50.4513 9.26339 51.3287 10.3414 51.8933 12.1987C52.4627 14.0701 52.6587 16.5667 52.3833 19.5814C52.3367 20.0729 52.2791 20.5707 52.2107 21.0747C49.6354 20.4341 47.0234 19.951 44.3893 19.6281ZM41.762 24.0334C37.2638 23.6138 32.7362 23.6138 28.238 24.0334C25.8343 27.6276 23.7557 31.4289 22.0267 35.3921C23.7566 39.3524 25.8336 43.1518 28.2333 46.7461C32.7347 47.1663 37.2653 47.1663 41.7667 46.7461C44.1685 43.1531 46.2456 39.3534 47.9733 35.3921C46.2436 31.4301 44.1619 27.6291 41.762 24.0334ZM50.2787 29.3441C49.5069 27.831 48.6867 26.3431 47.8193 24.8827C49.0327 25.1161 50.2024 25.3774 51.3287 25.6667C51.0362 26.8645 50.6862 28.0903 50.2787 29.3441ZM50.2787 41.4354C49.5069 42.95 48.6867 44.4395 47.8193 45.9014C49.0327 45.6681 50.2024 45.4052 51.3287 45.1127C51.0206 43.8753 50.6704 42.6489 50.2787 41.4354ZM55.7853 43.7081C55.0577 40.8778 54.141 38.0996 53.0413 35.3921C54.1893 32.5454 55.1087 29.7501 55.7853 27.0761C56.2644 27.2565 56.7311 27.4432 57.1853 27.6361C59.9667 28.8307 62.0713 30.1887 63.4433 31.5794C64.806 32.9607 65.338 34.2487 65.338 35.3921C65.338 36.5354 64.806 37.8187 63.4433 39.2001C62.0713 40.5954 59.9667 41.9534 57.1853 43.1481C56.7225 43.3441 56.2557 43.5308 55.7853 43.7081ZM52.2153 49.7047C49.6401 50.3469 47.0282 50.8316 44.394 51.1561C42.4807 53.8347 40.474 56.2474 38.444 58.3427L38.752 58.5854C41.1227 60.4661 43.3253 61.6654 45.2013 62.2114C47.0633 62.7527 48.4447 62.6081 49.448 62.0621C50.4513 61.5161 51.3333 60.4381 51.898 58.5807C52.472 56.7141 52.6633 54.2127 52.388 51.1981C52.3419 50.699 52.2843 50.2011 52.2153 49.7047ZM35 55.1881C36.0516 54.1116 37.0969 52.9372 38.136 51.6647C36.0461 51.7474 33.9538 51.7474 31.864 51.6647C32.9031 52.9341 33.9484 54.1085 35 55.1881ZM22.1853 45.9014C21.3179 44.4395 20.4977 42.95 19.726 41.4354C19.3216 42.6923 18.9716 43.9181 18.676 45.1127C19.7991 45.4052 20.9689 45.6681 22.1853 45.9014ZM17.7893 49.7047C20.3645 50.3469 22.9765 50.8316 25.6107 51.1561C27.524 53.8347 29.526 56.2474 31.5607 58.3427L31.2527 58.5854C28.882 60.4661 26.6793 61.6654 24.8033 62.2114C22.9367 62.7527 21.56 62.6081 20.552 62.0621C19.544 61.5161 18.6713 60.4381 18.102 58.5807C17.5327 56.7141 17.3413 54.2127 17.6167 51.1981C17.6642 50.6992 17.7218 50.2013 17.7893 49.7047ZM14.2193 43.7081C14.896 41.0294 15.8107 38.2387 16.9633 35.3921C15.8637 32.6845 14.947 29.9063 14.2193 27.0761C13.7371 27.2565 13.2704 27.4432 12.8193 27.6361C10.038 28.8307 7.93333 30.1887 6.56133 31.5794C5.19867 32.9607 4.66667 34.2487 4.66667 35.3921C4.66667 36.5354 5.19867 37.8187 6.56133 39.2001C7.93333 40.5954 10.038 41.9534 12.8193 43.1481C13.2736 43.3378 13.7402 43.5245 14.2193 43.7081ZM18.676 25.6714C18.9684 26.8661 19.3184 28.0903 19.726 29.3441C20.4978 27.831 21.318 26.3431 22.1853 24.8827C20.972 25.1161 19.8022 25.3789 18.676 25.6714ZM28 35.3921C28 33.5355 28.7375 31.7551 30.0503 30.4423C31.363 29.1296 33.1435 28.3921 35 28.3921C36.8565 28.3921 38.637 29.1296 39.9497 30.4423C41.2625 31.7551 42 33.5355 42 35.3921C42 37.2486 41.2625 39.029 39.9497 40.3418C38.637 41.6546 36.8565 42.3921 35 42.3921C33.1435 42.3921 31.363 41.6546 30.0503 40.3418C28.7375 39.029 28 37.2486 28 35.3921ZM35 33.0587C34.3812 33.0587 33.7877 33.3046 33.3501 33.7421C32.9125 34.1797 32.6667 34.7732 32.6667 35.3921C32.6667 36.0109 32.9125 36.6044 33.3501 37.042C33.7877 37.4796 34.3812 37.7254 35 37.7254C35.6188 37.7254 36.2123 37.4796 36.6499 37.042C37.0875 36.6044 37.3333 36.0109 37.3333 35.3921C37.3333 34.7732 37.0875 34.1797 36.6499 33.7421C36.2123 33.3046 35.6188 33.0587 35 33.0587Z" fill="#FD6F00"/>
</svg>
