<svg width="21" height="20" viewBox="0 0 21 20" fill="none" xmlns="http://www.w3.org/2000/svg">
<path fill-rule="evenodd" clip-rule="evenodd" d="M11.5931 19.2579L11.582 19.2599L11.511 19.2949L11.491 19.2989L11.477 19.2949L11.406 19.2599C11.3954 19.2566 11.3874 19.2583 11.382 19.2649L11.378 19.2749L11.361 19.7029L11.366 19.7229L11.376 19.7359L11.48 19.8099L11.495 19.8139L11.507 19.8099L11.611 19.7359L11.623 19.7199L11.627 19.7029L11.61 19.2759C11.6074 19.2653 11.6017 19.2593 11.5931 19.2579ZM11.858 19.1449L11.845 19.1469L11.66 19.2399L11.65 19.2499L11.647 19.2609L11.665 19.6909L11.67 19.7029L11.6781 19.7099L11.879 19.8029C11.8917 19.8063 11.9014 19.8036 11.908 19.7949L11.912 19.7809L11.878 19.1669C11.8747 19.1549 11.868 19.1476 11.858 19.1449ZM11.143 19.1469C11.1386 19.1443 11.1334 19.1434 11.1283 19.1445C11.1233 19.1456 11.1189 19.1487 11.116 19.1529L11.11 19.1669L11.076 19.7809C11.0767 19.7929 11.0824 19.8009 11.0931 19.8049L11.108 19.8029L11.309 19.7099L11.319 19.7019L11.323 19.6909L11.34 19.2609L11.337 19.2489L11.327 19.2389L11.143 19.1469Z" fill="#BABABA"/>
<path fill-rule="evenodd" clip-rule="evenodd" d="M20.84 2.05593C20.8836 1.79125 20.8555 1.51971 20.7585 1.26961C20.6615 1.01951 20.4992 0.799995 20.2885 0.633943C20.0778 0.46789 19.8265 0.361374 19.5606 0.325492C19.2948 0.28961 19.0242 0.325675 18.777 0.42993L1.67703 7.62993C0.485027 8.13193 0.424027 9.85593 1.67703 10.3759C2.91791 10.893 4.1767 11.3659 5.45103 11.7939C6.61903 12.1799 7.89303 12.5369 8.91403 12.6379C9.19303 12.9719 9.54403 13.2939 9.90203 13.5879C10.449 14.0379 11.107 14.5009 11.787 14.9449C13.149 15.8349 14.66 16.6859 15.678 17.2399C16.895 17.8999 18.352 17.1399 18.57 15.8129L20.84 2.05593ZM3.59403 8.99293L18.718 2.62493L16.6 15.4649C15.601 14.9219 14.162 14.1089 12.88 13.2709C12.2892 12.8915 11.7187 12.4813 11.171 12.0419C11.0247 11.9223 10.8826 11.7976 10.745 11.6679L14.706 7.70793C14.8937 7.52042 14.9991 7.26605 14.9992 7.00078C14.9993 6.73551 14.894 6.48107 14.7065 6.29343C14.519 6.10579 14.2647 6.00032 13.9994 6.00023C13.7341 6.00013 13.4797 6.10542 13.292 6.29293L8.95503 10.6299C8.22103 10.5359 7.19903 10.2639 6.07703 9.89393C5.24174 9.61562 4.41411 9.31484 3.59503 8.99193L3.59403 8.99293Z" fill="#BABABA"/>
</svg>
